<svg width="19" height="18" viewBox="0 0 19 18" fill="none" xmlns="http://www.w3.org/2000/svg">
<path d="M11.2732 6.0014V3.77H16.3759V0.370102H2.48106V3.77H7.58436V5.9996C3.43686 6.1901 0.318359 7.0115 0.318359 7.9955C0.318359 8.9795 3.43836 9.8009 7.58436 9.9926V17.1401H11.2744V9.992C15.4144 9.8009 18.5266 8.9801 18.5266 7.997C18.5266 7.0139 15.4144 6.1931 11.2744 6.002M11.2744 9.3866V9.3848C11.1703 9.3914 10.6354 9.4235 9.44436 9.4235C8.49216 9.4235 7.82226 9.3965 7.58616 9.3842V9.3872C3.92196 9.2249 1.18686 8.5868 1.18686 7.8233C1.18686 7.0598 3.92226 6.4226 7.58616 6.26V8.7515C7.82616 8.768 8.51256 8.8085 9.45996 8.8085C10.5979 8.8085 11.17 8.7611 11.275 8.7515V6.26C14.932 6.4229 17.6608 7.0616 17.6608 7.8224C17.6608 8.5832 14.9308 9.2222 11.275 9.3851" fill="white"/>
</svg>
